<?xml version="1.0" encoding="UTF-8" standalone="no"?>
<!-- Uploaded to: SVG Repo, www.svgrepo.com, Generator: SVG Repo Mixer Tools -->

<svg
   fill="#000000"
   version="1.1"
   id="Capa_1"
   width="500"
   height="348.95901"
   viewBox="0 0 42.359375 29.563372"
   xml:space="preserve"
   sodipodi:docname="book.svg"
   inkscape:version="1.2.2 (732a01da63, 2022-12-09)"
   xmlns:inkscape="http://www.inkscape.org/namespaces/inkscape"
   xmlns:sodipodi="http://sodipodi.sourceforge.net/DTD/sodipodi-0.dtd"
   xmlns="http://www.w3.org/2000/svg"
   xmlns:svg="http://www.w3.org/2000/svg"><defs
   id="defs11028" /><sodipodi:namedview
   id="namedview11026"
   pagecolor="#ffffff"
   bordercolor="#666666"
   borderopacity="1.0"
   inkscape:showpageshadow="2"
   inkscape:pageopacity="0.0"
   inkscape:pagecheckerboard="0"
   inkscape:deskcolor="#d1d1d1"
   showgrid="false"
   inkscape:zoom="0.295"
   inkscape:cx="401.69492"
   inkscape:cy="277.9661"
   inkscape:window-width="1920"
   inkscape:window-height="1057"
   inkscape:window-x="3832"
   inkscape:window-y="-8"
   inkscape:window-maximized="1"
   inkscape:current-layer="Capa_1" />
<g
   id="g11023"
   style="fill:#f2f2f2"
   transform="matrix(0.62501845,0,0,0.62501845,0,-6.3989389)">
	<path
   d="m 32.853,50.634 h 4.302 c -0.535,-0.498 -1.025,-1.021 -1.469,-1.577 -0.194,-0.246 -0.367,-0.506 -0.542,-0.759 -0.063,-0.094 -0.14,-0.183 -0.198,-0.276 -0.231,-0.347 -0.435,-0.7 -0.628,-1.059 l -4.966,1.059 v -30.09 -0.224 l 9.888,-2.112 11.562,-2.469 v 2.469 2.336 7.841 c 0.393,0.101 0.782,0.216 1.168,0.348 0.395,0.136 0.782,0.285 1.168,0.456 0.296,0.132 0.593,0.266 0.883,0.417 0.812,0.43 1.592,0.947 2.335,1.54 V 15.594 H 53.138 V 10.238 L 28.177,15.569 3.221,10.238 v 5.356 H 0 v 35.037 h 23.503 v 3.504 h -4.672 v 2.336 H 37.519 V 54.135 H 32.847 V 50.634 Z M 5.561,15.596 v -2.469 l 11.562,2.469 9.886,2.112 v 0.224 30.089 L 5.557,43.441 V 17.934 Z m 26.612,7.428 15.382,-5.081 0.734,2.217 -15.383,5.08 z M 23.456,25.24 8.071,20.16 8.802,17.943 24.186,23.024 Z m 0,6.263 -15.385,-5.08 0.731,-2.217 15.384,5.081 z M 8.817,30.466 24.192,35.546 23.461,37.764 8.086,32.683 Z m 0,6.26 15.375,5.082 -0.731,2.215 -15.375,-5.08 z M 59.49,47.935 59.316,47.791 58.942,48.24 57.505,47.036 c 1.656,-2.404 2.468,-5.26 2.198,-8.205 -0.25,-2.808 -1.455,-5.354 -3.349,-7.379 -0.36,-0.388 -0.702,-0.787 -1.117,-1.13 -0.383,-0.321 -0.808,-0.58 -1.218,-0.849 -0.292,-0.189 -0.577,-0.377 -0.883,-0.542 -0.379,-0.203 -0.771,-0.378 -1.168,-0.54 -0.384,-0.158 -0.771,-0.29 -1.168,-0.408 -1.163,-0.348 -2.37,-0.57 -3.593,-0.57 -3.746,0 -7.259,1.649 -9.653,4.52 -2.15,2.579 -3.167,5.837 -2.868,9.176 0.178,1.948 0.835,3.76 1.825,5.384 0.219,0.354 0.438,0.712 0.689,1.045 0.2,0.265 0.426,0.511 0.646,0.76 0.072,0.084 0.159,0.161 0.241,0.244 0.347,0.369 0.671,0.748 1.063,1.076 0.456,0.384 0.953,0.705 1.457,1.016 1.969,1.216 4.236,1.896 6.567,1.896 2.384,0 4.672,-0.671 6.638,-1.896 0.801,-0.498 1.542,-1.091 2.222,-1.766 l 0.315,0.262 1.09,0.908 -0.374,0.447 0.174,0.144 8.289,6.909 2.245,-2.691 z m -5.469,-0.431 c -0.311,0.282 -0.625,0.554 -0.961,0.794 -1.704,1.202 -3.738,1.896 -5.878,1.896 -2.104,0 -4.138,-0.689 -5.854,-1.896 -0.159,-0.114 -0.335,-0.217 -0.492,-0.34 -0.055,-0.051 -0.128,-0.082 -0.188,-0.135 -0.306,-0.253 -0.557,-0.555 -0.83,-0.842 -0.311,-0.326 -0.598,-0.655 -0.857,-1.016 -1.079,-1.476 -1.772,-3.202 -1.941,-5.068 -0.243,-2.719 0.581,-5.372 2.329,-7.47 1.947,-2.338 4.817,-3.678 7.86,-3.678 1.231,0 2.45,0.236 3.593,0.668 0.401,0.152 0.787,0.341 1.168,0.542 0.408,0.214 0.791,0.47 1.168,0.738 0.2,0.145 0.417,0.263 0.606,0.423 0.103,0.087 0.178,0.192 0.276,0.279 0.979,0.882 1.77,1.914 2.335,3.065 0.543,1.111 0.908,2.311 1.022,3.579 0.171,1.894 -0.208,3.736 -1.022,5.397 -0.357,0.728 -0.775,1.433 -1.313,2.078 -0.304,0.368 -0.671,0.664 -1.021,0.986 z"
   id="path11021"
   style="fill:#f2f2f2" />
</g>
</svg>
