<?xml version="1.0" encoding="UTF-8" standalone="no"?>
<svg
   shape-rendering="geometricPrecision"
   text-rendering="geometricPrecision"
   image-rendering="optimizeQuality"
   fill-rule="evenodd"
   clip-rule="evenodd"
   viewBox="0 0 490 511.751"
   version="1.1"
   id="svg4"
   sodipodi:docname="filter.svg"
   inkscape:version="1.2.2 (732a01da63, 2022-12-09)"
   xmlns:inkscape="http://www.inkscape.org/namespaces/inkscape"
   xmlns:sodipodi="http://sodipodi.sourceforge.net/DTD/sodipodi-0.dtd"
   xmlns="http://www.w3.org/2000/svg"
   xmlns:svg="http://www.w3.org/2000/svg">
  <defs
     id="defs8" />
  <sodipodi:namedview
     id="namedview6"
     pagecolor="#ffffff"
     bordercolor="#666666"
     borderopacity="1.0"
     inkscape:showpageshadow="2"
     inkscape:pageopacity="0.0"
     inkscape:pagecheckerboard="0"
     inkscape:deskcolor="#d1d1d1"
     showgrid="false"
     inkscape:zoom="0.92232354"
     inkscape:cx="183.23288"
     inkscape:cy="269.97034"
     inkscape:window-width="1920"
     inkscape:window-height="1017"
     inkscape:window-x="1912"
     inkscape:window-y="-8"
     inkscape:window-maximized="1"
     inkscape:current-layer="svg4" />
  <path
     fill-rule="nonzero"
     d="M40.867 0h408.265c11.248 0 21.467 4.596 28.87 11.999C485.404 19.401 490 29.621 490 40.869v52.689c0 .464-.034.92-.099 1.367a9.488 9.488 0 01-2.204 7.552L340.325 273.686l-.02-.018-.389.427c-4.812 4.951-8.835 10.857-11.587 17.468a51.297 51.297 0 00-3.352 11.907 10.97 10.97 0 01-.083.557 51.381 51.381 0 00-.518 7.282v43.728a9.483 9.483 0 01.668 3.508 9.483 9.483 0 01-.668 3.508v49.197a9.479 9.479 0 01.668 3.508 9.483 9.483 0 01-.668 3.508v63.998h-.038c-.024 7.863-1.851 14.526-4.876 19.403-1.893 3.053-4.257 5.484-6.977 7.192-3.031 1.902-6.418 2.904-10.039 2.891-3.637-.013-7.354-1.038-10.981-3.196a9.598 9.598 0 01-.939-.589L170.12 422.473a9.504 9.504 0 01-4.612-8.152v-102.71c-.762-6.35-2.854-12.586-6.005-18.963-3.464-7.011-8.192-14.184-13.84-21.825L2.303 102.403a9.434 9.434 0 01-2.179-7.312A9.571 9.571 0 010 93.558V40.869c0-11.248 4.595-21.468 11.997-28.87C19.4 4.596 29.62 0 40.867 0zm264.494 424.265h-28.953c-5.25 0-9.507-4.257-9.507-9.507 0-5.251 4.257-9.508 9.507-9.508h28.953v-37.197h-46.948c-5.25 0-9.507-4.258-9.507-9.508 0-5.25 4.257-9.508 9.507-9.508h46.948V311.84h-46.948c-5.25 0-9.507-4.257-9.507-9.508 0-5.25 4.257-9.507 9.507-9.507h49.444a71.603 71.603 0 012.943-8.541c3.615-8.681 8.858-16.45 15.123-22.995l-.008-.007 136.188-158.216H27.71l132.752 155.958.393.494.015-.011c6.307 8.53 11.634 16.635 15.642 24.747 4.217 8.534 6.988 17.077 7.936 26.089.033.325.049.647.05.966h.025v98.136l116.785 82.921c.486.279.847.423 1.085.443.298-.192.622-.563.951-1.094 1.272-2.05 2.042-5.269 2.054-9.451h-.037v-57.999zM449.132 19.016H40.867c-6 0-11.462 2.461-15.427 6.426-3.963 3.962-6.425 9.426-6.425 15.427v43.182h451.969V40.869c0-6.001-2.462-11.465-6.424-15.427-3.966-3.965-9.427-6.426-15.428-6.426z"
     id="path2"
     style="fill:#e6e6e6" />
</svg>
